<?xml version="1.0" encoding="UTF-8" standalone="no"?>
<svg
   xmlns:svg="http://www.w3.org/2000/svg"
   xmlns="http://www.w3.org/2000/svg"
   width="800.0"
   height="240.0"

>
    <g transform="scale(10.164740782571887, -10.164740782571887)   translate(38.42585836944441,-15.863760430059596)" stroke-width="0.09837929184722206"  fill="none">
       <!-- hidden lines -->
       <g  stroke="rgb(160,160,160)" fill="none" stroke-dasharray="0.09837929184722206,0.09837929184722206" >
			<path d="M17.697344181862828,1.259328173380912 L17.55737282895051,1.3378657630684534 L17.40897079806841,1.415760937998097 L17.252209348723547,1.4929762945593128 L17.087163754438357,1.5694747555759283 L16.913913266605935,1.6452195881098046 L16.732541076435194,1.7201744210992127 L16.543134275004217,1.794303262823445 L16.34578381144097,1.8675705181852773 L16.140584449251463,1.9399410058029785 L15.927634720816304,2.0113799749036647 L15.70703688007757,2.0818531220098824 L15.478896853438615,2.15132660741141 L15.243324188900456,2.2197670714143722 L15.000432003459165,2.287141650359852 L14.750336928789464,2.3534179924043253 L14.493159055240683,2.4185642730543324 L14.229021874171925,2.4825492104479197 L13.958052218654123,2.54534208037553 L13.680380202567495,2.606912731033113 L13.396139158123622,2.6672315975003853 L13.105465571842151,2.726269715937276 L12.808499019012855,2.783998737491748 L12.505382096674543,2.840390941912316 L12.196260355142991,2.8954192508587226 L11.88128222812076,2.949057240904386 L11.560598961422496,3.0012791562243626 L11.234364540349876,3.052059920962754 L10.902735615751157,3.1013751512735976 L10.565871428800738,3.149201167029472 L10.223933734534949,3.195515003192196 L9.877086724180703,3.2402944208401454 L9.52549694631434,3.2835179178469187 L9.169333226888558,3.325164739206198 L8.80876658816576,3.3652148869978626 L8.443970166596786,3.403649129990569 L8.075119129684465,3.4404490128761775 L7.325963529495907,3.509075809503811 L6.562738529372425,3.5709634801765993 L5.786909891151879,3.6259931705778063 L4.9999675817646425,3.6740591970360033 L4.2034229117751085,3.7150692494889297 L3.3988056329330645,3.748944568763545 L2.587661000309053,3.7756200978318035 L1.7715468046558558,3.795044606751674 L0.9520303806953805,3.8071807910534545 L0.13068559707651045,3.812005343382426 L-0.6909101662153542,3.809508998260275 L-1.5111790471922235,3.799696549879294 L-2.328545732123123,3.782586842895215 L-3.1414404808998095,3.758212736236336 L-3.9483021416984325,3.7266210399984554 L-4.747581149147525,3.687872425546809 L-5.537742500244396,3.6420413089976447 L-6.317268702304711,3.5892157083032226 L-7.084662687283785,3.5294970742146936 L-7.838450686872665,3.4630000954474975 L-8.209788958107525,3.427249133099446 L-8.577185062847423,3.389852478423456 L-8.940462585276833,3.3508280884997657 L-9.299447087236057,3.310194702012555 L-9.653966191982763,3.267971830252015 L-10.00384966696363,3.2241797477454486 L-10.348929505556406,3.17883948252187 L-10.689040007743149,3.1319728060147867 L-11.024017859675812,3.083602222608029 L-11.35370221209613,3.033750958829613 L-11.677934757572011,2.982442952198858 L-11.996559806513394,2.9297028397320983 L-12.309424361931097,2.8755559461125104 L-12.61637819290273,2.820028271529737 L-12.917273906710381,2.763146479195147 L-13.211967019615507,2.704937882538726 L-13.500316026236908,2.6454304320937494 L-13.782182467498648,2.5846527020755303 L-14.05743099711517,2.5226338766606795 L-14.325929446581672,2.459403735973493 L-14.58754888863866,2.3949926417861636 L-14.842163699180057,2.329431522939699 L-15.089651617575248,2.2627518604925565 L-15.329893805376043,2.194985672604096 L-15.562774903380364,2.126165499160148 L-15.788183087025287,2.0563243861480487 L-16.006010120082856,1.9854958697886524 L-16.216151406632775,1.9137139604329576 L-16.4185060412872,1.8410131262310525 L-16.61297685764331,1.7674282765812437 L-16.79947047494061,1.6929947453673029 L-16.977897342900363,1.617748273991881 L-17.14817178472572,1.5417249942142521 L-17.310212038241918,1.4649614108006075 L-17.46394029515676,1.387494383995234 L-17.60928273842246,1.3093611118210169 L-17.74616957768107,1.2305991122177322 L-17.874535082776294,1.1512462050267305 L-17.994317615315733,1.0713404938306506 L-18.10545965826834,0.9909203476568839 L-18.207907843582856,0.9100243825535888 L-18.30161297781403,0.8286914430470798 L-18.38653006574427,0.7469605834895051 L-18.46261833198939,0.6648710493057849 L-18.52984124057807,0.5824622581487858 L-18.58816651249568,0.4997737809717951 L-18.637566141183953,0.41684532302739913 L-18.658911258869114,0.3753035411905658 L-18.67801640598917,0.3337167048018573 L-18.694879289003698,0.29208980629025916 L-18.709497883552274,0.25042784289414494 L-18.72187043469748,0.20873581606137123 L-18.73199545713559,0.16701873084885918 L-18.739871735374887,0.12528159532174238 L-18.745498323881556,0.0835294199521623 L-18.748874547193214,0.04176721701776788 L-18.75,1.5437292249515e-14 " />
			<path d="M18.75,2.6575916038747374e-16 L18.74896225993265,0.040106678355389155 L18.745849154600407,0.08020891721135427 L18.740661028599977,0.12030227755989019 L18.733398456216825,0.16038232137577357 L18.724062241361608,0.20044461210781842 L18.712653417481167,0.24048471516996792 L18.683623223401277,0.3204806327109744 L18.646320727294228,0.40033465525891987 L18.600762445095423,0.48001142689891013 L18.546968548046035,0.5594756701951034 L18.48496285376208,0.6386922018100365 L18.414772815688988,0.7176259480822881 L18.336429510946388,0.7962419605555823 L18.249967626568537,0.8745054314524564 L18.15542544414637,0.9523817090856438 L18.052844822878065,1.029836313200344 L17.942271181035615,1.1068349502405928 L17.823753475855554,1.1833435285329679 L17.69734418186283,1.2593281733809087 " />
			<path d="M15.375000000000002,8.0565899526772 L15.045682229946527,8.149506597296751 L14.702784532407083,8.24037003333807 L14.346616399885665,8.32909824930752 L13.977499302511609,8.415611160917763 L13.595766397887184,8.49983068337023 L13.201762230386286,8.58168080183287 L12.795842420175692,8.661087640049598 L12.378373342239504,8.737979527019496 L11.949731795696518,8.81228706168561 L11.510304663708999,8.883943175574943 L11.06048856428978,8.952883193333086 L10.600689492322894,9.019044891098883 L10.131322453120832,9.08236855266643 L9.652811087849159,9.14279702338371 L9.165587291156601,9.20027576173922 L8.670090821355709,9.25475288859003 L8.16676890350591,9.306179233986851 L7.656075825757255,9.354508381553831 L7.138472529319154,9.39969671038303 L6.614426192424181,9.44170343440577 L6.084409808662496,9.480490639205318 L5.548901760067424,9.51602331623766 L5.008385385337524,9.548269394429505 L4.463348543584911,9.57719976912499 L3.914283174003506,9.602788328354944 L3.3616848518547044,9.62501197640503 L2.806052341171205,9.643850654661465 L2.247887144582698,9.65928735971551 L1.6876930506697922,9.671308158710413 L1.1259756792546547,9.679902201916917 L0.5632420250388028,9.68506173252601 L1.094074376990738e-15,9.686782093650056 L-0.5632420250388005,9.68506173252601 L-1.1259756792546525,9.679902201916917 L-1.6876930506697898,9.671308158710413 L-2.247887144582695,9.65928735971551 L-2.8060523411712026,9.643850654661465 L-3.3616848518547022,9.62501197640503 L-3.9142831740035042,9.602788328354944 L-4.4633485435849085,9.57719976912499 L-5.008385385337521,9.548269394429505 L-5.548901760067422,9.51602331623766 L-6.084409808662494,9.480490639205318 L-6.614426192424179,9.44170343440577 L-7.138472529319152,9.39969671038303 L-7.656075825757252,9.354508381553831 L-8.166768903505911,9.306179233986851 L-8.670090821355707,9.25475288859003 L-9.165587291156596,9.20027576173922 L-9.652811087849157,9.14279702338371 L-10.131322453120834,9.08236855266643 L-10.600689492322896,9.019044891098883 L-11.060488564289779,8.952883193333086 L-11.510304663708995,8.883943175574945 L-11.94973179569651,8.812287061685613 L-12.3783733422395,8.737979527019496 L-12.795842420175694,8.661087640049598 L-13.201762230386285,8.581680801832873 L-13.59576639788718,8.49983068337023 L-13.977499302511603,8.415611160917765 L-14.346616399885656,8.329098249307522 L-14.70278453240708,8.240370033338072 L-15.045682229946525,8.149506597296751 L-15.374999999999948,8.056589952677216 " />
			<path d="M14.511822229127517,6.907333256437588 L14.397045719739417,6.971734079981371 L14.275356054416095,7.03560812342368 L14.14681166595331,7.098924715803876 L14.011474278639454,7.161653453837501 L13.869408878616866,7.22376421651528 L13.72068368267686,7.285227179566594 L13.565370105503458,7.346012829780465 L13.403542725381596,7.406091979177168 L13.235279248386199,7.465435779023682 L13.060660471069369,7.5240157336862445 L12.879770241663607,7.581803714313343 L12.692695419819664,7.638771972342596 L12.499525834898375,7.694893152825025 L12.300354242836516,7.750140307560319 L12.09527628160736,7.804486908036787 L11.884390425297362,7.857906858169793 L11.667797936820978,7.910374506832534 L11.44560281929638,7.961864660173174 L11.217911766105345,8.012352593712393 L10.98483410966137,8.061814064215556 L10.746481768910563,8.110225321333806 L10.502969195590541,8.157563119008472 L10.000933491217252,8.248927939969391 L9.479691148366447,8.335733062369217 L8.940243204915948,8.41781177830959 L8.383625662318659,8.495006456882841 L7.810907495977758,8.567168846899714 L7.223188602295923,8.634160361603488 L6.621597686341262,8.695852344823706 L6.0072900941866445,8.752126318058364 L5.381445594085389,8.802874208010051 L4.745266110744541,8.847998554139041 L4.099973417047007,8.887412695834762 L3.4468067876555892,8.921040938846161 L2.7870206190051126,8.948818700651346 L2.1218820202534237,8.970692634487317 L1.4526683798178017,8.986620731801612 L0.7806649121702119,8.996572402929072 L0.10716218960273857,9.000528535838829 L-0.5665463362965905,8.998481532838666 L-1.2391668186976232,8.99043532516626 L-1.909407500340961,8.976405365439316 L-2.5759811943378437,8.956418597979035 L-3.2376077561927143,8.930513407063973 L-3.8930165423009706,8.898739543213622 L-4.5409488502004045,8.861158027643308 L-5.180160335889863,8.817841035073883 L-5.809423403572704,8.768871755121289 L-6.427529563235585,8.714344232532188 L-7.033291751534888,8.654363186572473 L-7.625546611533566,8.589043809915534 L-8.203156726910176,8.518511547416507 L-8.76501280634938,8.442901855197364 L-9.310035813918827,8.362359940505522 L-9.837179041340983,8.27704048284556 L-10.345430118180237,8.187107336919624 L-10.592164603502512,8.14046426720526 L-10.833812956084715,8.092733217946995 L-11.070259141514265,8.043937108582114 L-11.301389623348891,7.9940993699671745 L-11.52709341763444,7.943243933126997 L-11.747262146196972,7.891395217763504 L-11.961790088683701,7.838578120529894 L-12.170574233327647,7.784818003075793 L-12.373514326411703,7.730140679869136 L-12.570512920408355,7.674572405800598 L-12.761475420771898,7.618139863576561 L-12.946310131360736,7.56087015090664 L-13.12492829846794,7.502790767491935 L-13.297244153438877,7.443929601820265 L-13.463174953855502,7.384314917774702 L-13.622641023267514,7.3239753410618595 L-13.775565789451301,7.262939845466429 L-13.921875821178297,7.201237738938582 L-14.06150086347509,7.138898649520927 L-14.194373871358373,7.075952511121738 L-14.320431042028543,7.0124295491413315 L-14.439611845506418,6.948360265958474 L-14.551859053698479,6.88377542628378 L-14.657118767876561,6.818706042387158 L-14.7553404445589,6.753183359206373 L-14.846476919780038,6.687238839343885 L-14.930484431737941,6.620904147959182 L-15.007322641807505,6.554211137563845 L-15.076954653910303,6.487191832726634 L-15.1393470322313,6.419878414695983 L-15.194469817274015,6.352303205947244 L-15.242296540246455,6.284498654662112 L-15.282804235770843,6.216497319147707 L-15.315973452911118,6.148331852202763 L-15.341788264512864,6.080034985438439 L-15.360236274851184,6.011639513561304 L-15.371308625582875,5.943178278626013 L-15.375,5.874684154265252 " />
			<path d="M15.375,5.87468415426524 L15.371596306772334,5.94045546637855 L15.361386734097797,6.006197657793375 L15.344375802334557,6.071881620704613 L15.320571043189046,6.137478273088239 L15.289982996381267,6.202958571577554 L15.252625204978246,6.268293524322346 L15.20851420939775,6.333454203825225 L15.157669540084907,6.39841175974947 L15.100113708864969,6.463137431692716 L15.035872198976039,6.527602561920817 L14.964973453786202,6.591778608056254 L14.887448864200023,6.655637155715468 L14.803332754760014,6.719149931089522 L14.712662368449203,6.782288813462526 L14.615477850201556,6.845025847662273 L14.511822229127521,6.907333256437585 " />
			<path d="M13.449981578215748,5.8526595403238595 L11.562264865483716,5.718331201829895 " />
			<path d="M11.562264865483714,9.947493209544078 L11.562264865483714,5.718331201829897 " />
			<path d="M13.449981578215748,5.8526595403238595 L13.449981578215748,11.7273436945891 " />
			<path d="M6.181872567513825,7.505947151144284 L6.181872567513825,8.620074105884592 " />
			<path d="M13.449981578215748,5.8526595403238595 L13.330403020189008,5.919480282804388 L13.20279472583878,5.985684260094462 L13.067233561630001,6.051231593393689 L12.923801184539029,6.1160827994394635 L12.772583992866545,6.180198814290204 L12.613673074194436,6.243541016856018 L12.447164150518047,6.306071252162598 L12.27315752058683,6.36775185433435 L12.091757999488133,6.428545669282912 L11.903074855510495,6.488416077087387 L11.707221744324537,6.5473270140528115 L11.504316640521013,6.605242994433581 L11.294481766547348,6.66212913180873 L11.07784351908539,6.717951160096215 L10.854532392914782,6.772675454193514 L10.624682902307793,6.826269050232138 L10.388433500002934,6.878699665433826 L10.145926493806225,6.929935717556487 L9.897307960870274,6.9799463439181615 L9.642727659702876,7.028701419987549 L9.382338939958082,7.076171577529893 L9.11629865006411,7.122328222297314 L8.844767042743701,7.167143551252913 L8.567907678483884,7.2105905693182795 L8.285887327013254,7.252643105634318 L7.998875866846113,7.2932758293256015 L7.7070461829540164,7.33246426475873 L7.4105740626263295,7.37018480628555 L7.109638089582528,7.4064147324623075 L6.804419536400051,7.441132219736198 L6.181872567513851,7.50594715114428 " />
			<path d="M6.181872567513825,7.505947151144283 L5.3142413299680245,7.139578446219382 " />
			<path d="M5.314241329968024,8.526245965154592 L5.314241329968024,7.1395784462193825 " />
			<path d="M5.314241329968024,7.1395784462193825 L4.9633725903796,7.172549227132484 L4.607562142915253,7.203252967774104 L4.247164244939015,7.231659098422913 L3.8825377212415786,7.257739336938691 L3.5140456067817603,7.281467716921028 L3.1420547852361524,7.302820613562373 L2.7669356237168556,7.3217767671697285 L2.3890616040210038,7.338317304331545 L2.008808950779175,7.352425756708747 L1.6265562568729532,7.364088077431196 L1.2426841064945764,7.373292655083246 L0.8575746962239509,7.380030325264468 L0.4716114545003457,7.384294379714062 L0.08517865986757875,7.386080572989824 L-0.3013389416271912,7.385387126695067 L-0.6875565195001101,7.382214731249249 L-1.0730895419813702,7.3765665452005695 L-1.4575541588685268,7.368448192081209 L-1.840567583701224,7.357867754808339 L-2.2217484748768346,7.344835767636493 L-2.6007173153275205,7.329365205669287 L-2.977096790380749,7.311471471940954 L-3.3505121634270245,7.29117238208054 L-3.720591649020788,7.268488146574043 L-4.086966783043062,7.243441350642142 L-4.449272789557249,7.216056931753556 L-4.807148943992849,7.1863621547964325 L-5.160238932295504,7.15438658493246 L-5.508191205685759,7.120162058160762 L-5.850659330673375,7.083722649620857 L-6.187302333978656,7.0451046396662536 L-6.51778504201741,7.004346477742459 L-6.84177841461152,6.96148874410536 L-7.158959872592901,6.916574109418102 L-7.4690136189746354,6.869647292266673 L-7.7716309533695265,6.820755014636515 L-8.066510579343035,6.7699459553944745 L-8.353358904394584,6.7172707018224145 L-8.631890332268544,6.662781699250745 L-8.90182754730388,6.606533198842008 L-9.162901790539378,6.54858120357652 L-9.414853127299471,6.488983412493835 L-9.657430705994333,6.427799163245566 L-9.890393007876503,6.36508937301673 L-10.113508087505451,6.300916477874461 L-10.326553803680584,6.235344370604475 L-10.529318040612813,6.16843833709717 L-10.721598919114474,6.100264991346702 L-10.903204997597339,6.030892209127754 L-11.073955462678564,5.960389060416041 L-11.233680309204853,5.888825740619811 L-11.382220509515543,5.816273500690833 L-11.519428171776116,5.742804576184458 L-11.645166687224515,5.668492115339358 L-11.759310866183597,5.593410106248582 L-11.861747062704387,5.517633303194405 L-11.908542337762574,5.479507905847311 L-11.952373287715968,5.441237152220348 L-11.99322900197773,5.402830568832595 L-12.031099310569367,5.364297716014449 L-12.065974786652289,5.325648185527835 L-12.097846748874371,5.286891598178582 L-12.12670726353096,5.248037601421565 L-12.152549146539766,5.209095866959226 L-12.17536596522915,5.170076088334051 L-12.19515203993937,5.13098797851561 L-12.211902445436401,5.091841267482767 L-12.225613012137922,5.052645699801649 L-12.236280327151247,5.013411032199985 L-12.243901735122867,4.974147031138431 L-12.248475338899434,4.934863470379443 L-12.25,4.895570128554376 " />
			<path d="M-12.25,4.895570128554366 L-12.246310529028502,4.834448464988683 L-12.235244338513361,4.773363618827648 L-12.216808094313954,4.712352385298475 L-12.19101290173441,4.651451515286888 L-12.157874298834198,4.59069769319975 L-12.117412247068566,4.530127514867755 L-12.06965111926453,4.4697774655014655 L-12.014619684939573,4.409683897713986 L-11.952351092971975,4.3498830096235075 L-11.882882851633164,4.290410823048918 L-11.80625680599414,4.231303161811601 L-11.722519112719558,4.172595630156508 L-11.631720212264696,4.1143235913054905 L-11.533914798492003,4.056522146155824 L-11.42916178572555,3.9992261121367294 L-11.317524273263261,3.942470002236663 L-11.19906950736825,3.8862880042139816 L-11.073868840762179,3.830713960003513 L-10.941997689645063,3.775781345331443 L-10.80353548826735,3.7215232495507866 L-10.658565641081715,3.6679723557096016 L-10.507175472503333,3.615160920863941 L-10.349456174308914,3.5631207566474092 L-10.18550275070618,3.511883210109022 L-10.015413961106898,3.4614791448309195 L-9.839292260637897,3.4119389223372982 L-9.657243738425924,3.363292383805757 L-9.469378053693527,3.3155688320920973 L-9.275808369704434,3.2687970140793725 L-9.076651285598249,3.223005103361843 L-8.872026766155471,3.178220683274255 L-8.66205806953521,3.1344707302766714 L-8.446871673029072,3.0917815977048626 L-8.226597196875975,3.0501789998960396 L-7.771317731004653,2.970332978381518 L-7.297316480032306,2.8951250217926217 L-6.8057353544901265,2.824736312684212 L-6.297758616366966,2.759336423621853 L-5.774610026118474,2.6990829086666497 L-5.23754989452096,2.644120923813715 L-4.687872046472356,2.5945828772986594 L-4.126900704054704,2.550588110614559 L-3.5559872963671753,2.5122426110078417 L-2.9765072038149962,2.47963875614573 L-2.389856444697576,2.452855091570346 L-1.7974483120781777,2.431956141475624 L-1.2007099690371155,2.4169922532628756 L-0.6010790105108709,2.4079994762494854 L-2.2149875885894565e-15,2.4049994748229535 L0.6010790105108663,2.4079994762494854 L1.200709969037111,2.4169922532628756 L1.7974483120781732,2.431956141475624 L2.3898564446975716,2.4528550915703455 L2.976507203814992,2.4796387561457296 L3.555987296367171,2.5122426110078417 L4.126900704054701,2.5505881106145587 L4.687872046472353,2.594582877298659 L5.237549894520956,2.6441209238137144 L5.77461002611847,2.6990829086666497 L6.297758616366964,2.7593364236218525 L6.805735354490123,2.8247363126842115 L7.297316480032302,2.895125021792621 L7.77131773100465,2.9703329783815176 L8.226597196875966,3.0501789998960387 L8.446871673029069,3.0917815977048626 L8.662058069535204,3.1344707302766714 L8.872026766155466,3.1782206832742546 L9.076651285598253,3.2230051033618445 L9.27580836970444,3.2687970140793743 L9.46937805369353,3.3155688320920986 L9.65724373842593,3.3632923838057582 L9.839292260637903,3.411938922337299 L10.015413961106901,3.4614791448309212 L10.18550275070618,3.5118832101090227 L10.34945617430891,3.563120756647409 L10.507175472503333,3.6151609208639406 L10.658565641081713,3.667972355709601 L10.803535488267347,3.721523249550786 L10.94199768964506,3.7757813453314424 L11.073868840762179,3.8307139600035125 L11.199069507368248,3.8862880042139807 L11.31752427326326,3.9424700022366626 L11.429161785725547,3.9992261121367285 L11.533914798492,4.056522146155824 L11.631720212264694,4.11432359130549 L11.722519112719555,4.172595630156506 L11.806256805994135,4.231303161811598 L11.88288285163316,4.290410823048916 L11.952351092971973,4.3498830096235075 L12.014619684939571,4.409683897713985 L12.06965111926453,4.469777465501465 L12.117412247068568,4.530127514867757 L12.157874298834198,4.590697693199751 L12.191012901734412,4.651451515286889 L12.216808094313954,4.712352385298477 L12.235244338513361,4.7733636188276485 L12.246310529028502,4.834448464988685 L12.25,4.895570128554344 " />
			<path d="M12.25,4.8955701285543665 L12.247288114338932,4.947973287799118 L12.23915365806166,5.000353245186538 L12.225600232754362,5.052686809132079 L12.206633839288834,5.104950808592203 L12.182262875165563,5.157122103323528 L12.152498130795676,5.209177594128321 L12.11735278472341,5.261094233081834 L12.076842397791227,5.312849033736923 L12.030984906250138,5.364419081301461 L11.979800613818307,5.415781542784013 L11.923312182691445,5.466913677103305 L11.861544623508962,5.517792845156987 L11.794525284280336,5.568396519845258 L11.722283838276601,5.618702296044887 L11.644852270892295,5.668687900529239 L11.562264865483716,5.718331201829893 " />
			<path d="M14.865769112764776,5.953405794194333 L14.748193176318427,6.019377369531867 L14.623535470377462,6.084809316472768 L14.49185585292778,6.149670215984189 L14.353217553728221,6.2139289232381465 L14.207687143948986,6.277554582566602 L14.055334504205563,6.340516642277705 L13.896232791003541,6.4027848693260605 L13.730458401610417,6.464329363829999 L13.558090937371228,6.525120573428868 L13.379213165485695,6.585129307473444 L13.193910979265159,6.644326751042668 L13.002273356888436,6.702684478779951 L12.804392318676383,6.760174468542439 L12.600362882905698,6.816769114856642 L12.39028302018315,6.872441242174 L12.174253606402175,6.927164117920006 L11.952378374304418,6.980911465330619 L11.724763863669462,7.033657476069811 L11.491519370156695,7.085376822622181 L11.252756892823843,7.13604467045469 L11.008591080347406,7.185636689941678 L10.759139175970798,7.234129068047435 L10.504520961206616,7.281498519760712 L10.244858698320112,7.327722299275694 L9.710903127594896,7.416644619782831 L9.158297917230971,7.500725255624188 L8.588104337009357,7.5798027312358105 L8.001417434904045,7.653725179545778 L7.399363934059238,7.722350633632571 L6.783100068934951,7.785547299370355 L6.153809364776563,7.843193808537567 L5.512700364672837,7.89517945190271 L4.861004308567578,7.941404391839724 L4.1999727686823,7.981779854064609 L3.530875245891091,8.016228298125068 L2.854996731663774,8.044683566315744 L2.1736352402596046,8.067091010733082 L1.488099315910919,8.083407598225772 L0.7997055197841195,8.093601993039268 L0.10977590154426878,8.097654616995605 L-0.5803645396208975,8.095557687092997 L-1.2693903996414677,8.087315230452973 L-1.9559784149834234,8.072943076586347 L-2.63881000395584,8.052468826992888 L-3.316573799026683,8.02593180215307 L-3.987968165283921,7.9933829660136855 L-4.651703700205292,7.954884828112387 L-5.306505709935958,7.910511323529073 L-5.95111665731838,7.860347670894709 L-6.584298576973039,7.8044902087302646 L-7.204835452791836,7.7430462104300695 L-7.811535553278287,7.676133678244913 L-8.40323372024945,7.603881116660543 L-8.978793606504244,7.526427285606787 L-9.537109858160749,7.443920933971241 L-10.077110237471251,7.356520513929329 L-10.33991646402212,7.311037123288875 L-10.597757682038292,7.264393876639345 L-10.85051008163672,7.21661317107829 L-11.098052296477025,7.167717949886896 L-11.340265462039003,7.117731691513116 L-11.577033272698865,7.066678398297812 L-11.808242037576742,7.014582584949337 L-12.033780735128605,6.9614692667721005 L-12.253541066456473,6.907363947654744 L-12.467417507311248,6.852292607823713 L-12.675307358763208,6.796281691368113 L-12.877110796515876,6.7393580935418065 L-13.072730918839504,6.681549147848891 L-13.26207379310124,6.622882612918728 L-13.445048500869596,6.563386659176834 L-13.621567181571532,6.50308985531805 L-13.791545074681245,6.442021154588451 L-13.95490056042038,6.380209880882611 L-14.111555198950112,6.3176857146629 L-14.261433768036303,6.254478678707546 L-14.404464299169604,6.190619123694338 L-14.54057811212321,6.126137713626877 L-14.669709847931678,6.061065411110363 L-14.791797500274868,5.99543346248402 L-14.9067824452521,5.929273382817262 L-15.014609469532086,5.86261694077682 L-15.115226796865215,5.795496143372112 L-15.208586112945406,5.727943220586149 L-15.294642588609598,5.659990609899381 L-15.373354901363786,5.591670940713914 L-15.444685255225188,5.52301701868555 L-15.508599398871088,5.4540618099712255 L-15.565066642085577,5.384838425399346 L-15.61405987049637,5.315380104570674 L-15.655555558594521,5.245720199897382 L-15.689533781030901,5.175892160587926 L-15.71597822218391,5.105929516585448 L-15.734876183993897,5.035865862467408 L-15.746218592060506,4.965734841314183 L-15.75,4.89557012855438 " />
			<path d="M-15.75,4.895570128554366 L-15.748814053966527,4.856274671672223 L-15.745256394465217,4.816985132541345 L-15.739327557266504,4.7777074280218095 L-15.731028435231465,4.738447473191441 L-15.720360278177349,4.699211180455029 L-15.70732469268937,4.660004458653935 L-15.691923641878754,4.620833212176249 L-15.6741594450871,4.581703340067608 L-15.654034777537106,4.542620735142821 L-15.631552669929683,4.503591283098431 L-15.5795300319453,4.425715339528723 L-15.518122867625824,4.348122418914922 L-15.447368166350879,4.27085926033102 L-15.367308548106825,4.193972404214691 L-15.277992237814068,4.117508164333076 L-15.179473036278178,4.041512599885097 L-15.07181028778229,3.9660314877571192 L-14.955068844340325,3.891110294948669 L-14.829319026632573,3.816794151184812 L-14.694636581647135,3.74312782173169 L-14.551102637052765,3.6701556804316047 L-14.398803652330606,3.5979216829738716 L-14.23783136669423,3.526469340417555 L-14.068282743829366,3.455841692982036 L-13.890259913486592,3.3860812841211922 L-13.703870109962205,3.317230134896812 L-13.509225607504286,3.2493297186666767 L-13.306443652682889,3.182420936102565 L-13.095646393765087,3.1165440905532096 L-12.87696080713744,3.051738863767078 L-12.650518620820154,2.9880442919895644 L-12.416456235119046,2.9254987424490118 L-12.174914640463106,2.864139890245735 L-11.92603933247713,2.8040046956579463 L-11.669980224340605,2.7451293818782654 L-11.406891556485606,2.687549413194224 L-11.136931803688126,2.631299473625902 L-10.860263579608805,2.5764134460335764 L-10.57705353884054,2.5229243917079462 L-10.287472276521978,2.470864530455254 L-9.991694225577412,2.420265221189276 L-9.689897551644869,2.3711569430418824 L-9.382264045755822,2.323569277003552 L-9.068979014831063,2.27753088810489 L-8.750231170058735,2.233069508149882 L-8.426212513221781,2.1902119190112947 L-8.097118221043242,2.148983936498278 L-7.763146527619101,2.109410394805882 L-7.424498605009466,2.071515131555874 L-7.081378442060059,2.0353209734378397 L-6.733992721526949,2.000849722459243 L-6.382550695578598,1.9681221428127103 L-6.0272640597501725,1.9371579483684576 L-5.668346825426073,1.9079757907993922 L-5.306015190927477,1.880593248346043 L-4.940487411282554,1.8550268152280842 L-4.571983666757797,1.831291891708835 L-3.8269378334764235,1.7893726497432625 L-3.0726725717540266,1.7549365095749119 L-2.3110049726719426,1.7280664308816984 L-1.543769960190577,1.7088271460367355 L-0.772815870656834,1.697265004162377 L-2.8478411853293012e-15,1.6934078594711215 L0.7728158706568281,1.697265004162377 L1.5437699601905714,1.7088271460367355 L2.311004972671937,1.728066430881698 L3.072672571754021,1.7549365095749114 L3.8269378334764177,1.789372649743262 L4.5719836667577916,1.8312918917088346 L4.9404874112825485,1.8550268152280833 L5.3060151909274715,1.8805932483460426 L5.668346825426068,1.9079757907993922 L6.027264059750167,1.9371579483684571 L6.382550695578593,1.9681221428127098 L6.733992721526944,2.0008497224592423 L7.081378442060054,2.0353209734378392 L7.424498605009462,2.0715151315558735 L7.763146527619096,2.1094103948058818 L8.097118221043239,2.148983936498277 L8.426212513221778,2.1902119190112947 L8.75023117005873,2.2330695081498817 L9.068979014831058,2.2775308881048897 L9.382264045755816,2.3235692770035516 L9.689897551644863,2.3711569430418815 L9.991694225577408,2.4202652211892755 L10.287472276521973,2.4708645304552537 L10.577053538840529,2.522924391707945 L10.860263579608803,2.576413446033576 L11.136931803688121,2.6312994736259014 L11.4068915564856,2.6875494131942226 L11.66998022434061,2.7451293818782667 L11.926039332477135,2.8040046956579476 L12.174914640463111,2.8641398902457365 L12.416456235119051,2.9254987424490135 L12.65051862082016,2.988044291989566 L12.876960807137444,3.05173886376708 L13.095646393765087,3.1165440905532105 L13.306443652682885,3.182420936102564 L13.509225607504284,3.2493297186666763 L13.703870109962203,3.3172301348968114 L13.890259913486588,3.3860812841211922 L14.068282743829363,3.4558416929820357 L14.237831366694229,3.526469340417554 L14.398803652330605,3.5979216829738707 L14.551102637052763,3.6701556804316042 L14.694636581647133,3.7431278217316892 L14.829319026632572,3.816794151184811 L14.955068844340323,3.8911102949486684 L15.071810287782286,3.966031487757117 L15.179473036278173,4.041512599885094 L15.277992237814065,4.117508164333072 L15.367308548106823,4.193972404214691 L15.447368166350877,4.270859260331019 L15.518122867625822,4.3481224189149215 L15.579530031945302,4.425715339528725 L15.631552669929683,4.503591283098433 L15.654034777537108,4.542620735142824 L15.674159445087101,4.581703340067611 L15.691923641878754,4.62083321217625 L15.70732469268937,4.660004458653937 L15.720360278177349,4.699211180455032 L15.731028435231465,4.738447473191444 L15.739327557266504,4.77770742802181 L15.745256394465217,4.816985132541347 L15.748814053966527,4.8562746716722245 L15.75,4.895570128554337 " />
			<path d="M15.75,4.8955701285543665 L15.74651328986434,4.962945619011904 L15.736054703222134,5.030291278510016 L15.71862887068418,5.097577289297139 L15.694243507657072,5.164773860031585 L15.662909410927153,5.231851238971859 L15.624640453880154,5.298779727149451 L15.57945358035867,5.365529691518253 L15.527368797160149,5.4320715780747975 L15.468409165178748,5.498375924943488 L15.402600789194967,5.564413375421055 L15.329972806317572,5.63015469097443 L15.25055737308295,5.695570764186307 L15.164389651217576,5.760632631642656 L15.071507792069916,5.825311486756465 L14.971952919718667,5.8895786925220595 L14.865769112764779,5.95340579419433 " />
			<path d="M14.865769112764776,3.016063717061713 L14.752679915604773,3.0795983763657757 L14.633022406085638,3.142633769732624 L14.506849859131188,3.205141832013709 L14.374218450345063,3.267094732843269 L14.235187230999742,3.3284648890291955 L14.08981810174525,3.3892249768338605 L13.938175785049216,3.4493479441394133 L13.7803277963806,3.508807022492158 L13.616344414149887,3.5675757390206266 L13.446298648419138,3.6256279282220554 L13.270266208395835,3.68293774361201 L13.088325468724992,3.739479669231975 L12.900557434594543,3.795228531009782 L12.707045705669511,3.850159507967825 L12.507876438871083,3.904248143274062 L12.303138310017086,3.957470355130895 L12.092922474341,4.0098024474970675 L11.877322525907049,4.061221120637817 L11.656434455939477,4.111703481498579 L11.430356610084518,4.161227053897625 L10.96303648166089,4.25731007279999 L10.476194304808399,4.349299080828784 L9.970697006912498,4.437030271736287 L9.447444734820888,4.520347421235508 L8.907369251938112,4.599102165191182 L8.351432279020068,4.673154263814078 L7.780623781623006,4.742371851388163 L7.195960207256553,4.806631671085912 L6.598482675379946,4.865819294453651 L5.989255123464522,4.91982932517607 L5.369362412423824,4.968565586757072 L4.73990839478501,5.011941293782741 L4.102013949041616,5.049879206461471 L3.4568149836878876,5.082311768166062 L2.8054604144889947,5.109181225732841 L2.1491101185889727,5.130439732303616 L1.4889328690995618,5.14604943252732 L0.8261042538478895,5.155982529969611 L0.1618045819890549,5.1602213366104195 L-0.5027832177886173,5.158758304341276 L-1.1664757037229663,5.151596038406345 L-1.828091028351023,5.138747292763224 L-2.486451043043046,5.120234947371778 L-3.1403833959499896,5.09609196745144 L-3.7887236196285445,5.066361344779534 L-4.430317204626323,5.031096021135156 L-5.064021655334652,4.990358794024925 L-5.688708524448166,4.944222204858502 L-6.303265422408366,4.892768409772968 L-6.906597998252874,4.836089033336132 L-7.4976318883431095,4.774285005389247 L-8.075314629500204,4.707466381319676 L-8.638617533142467,4.63575214608357 L-9.186537517087027,4.559270002327511 L-9.718098891753748,4.478156142986447 L-10.232355097590762,4.39255500876282 L-10.728390390627688,4.302619030918777 L-11.205321473155058,4.20850835983947 L-11.436356165279586,4.159939602121856 L-11.662299066626195,4.1103905798507885 L-11.883049580994067,4.0598833536591314 L-12.098509423980628,4.0084404107993645 L-12.308582666740572,3.9560846551316207 L-12.513175778696091,3.902839396926235 L-12.712197669179348,3.848728342485355 L-12.905559727988638,3.793775583588215 L-13.093175864840168,3.738005586764795 L-13.274962547697893,3.6814431824026244 L-13.450838839964353,3.6241135536915876 L-13.620726436515955,3.5660422254116564 L-13.784549698566627,3.507255052568526 L-13.942235687344368,3.447778208882234 L-14.093714196565648,3.387638175133881 L-14.238917783693246,3.3268617273756287 L-14.377781799963595,3.265475925009243 L-14.51024441917023,3.2035080987384776 L-14.636246665190589,3.140985838400671 L-14.755732438243845,3.0779369806829644 L-14.868648539868138,3.0143895967286163 L-14.97494469660603,2.950371979638934 L-15.074573582387682,2.8859126318763817 L-15.167490839601754,2.8210402525744733 L-15.253655098844698,2.7557837247601 L-15.333027997339569,2.6901721024939897 L-15.405574196016236,2.6242345979350112 L-15.471261395245335,2.558000568334092 L-15.530060349218989,2.491499502963534 L-15.581944878971862,2.424761009987551 L-15.62689188403679,2.357814803279879 L-15.664881352729743,2.2906906891943213 " />
			<path d="M-15.664881352729749,2.290690689194307 L-15.68481726195234,2.2492558991451435 L-15.702101869837813,2.207771914865093 L-15.716732254662363,2.16624574864771 L-15.728705943361863,2.1246844199168216 L-15.738020911949913,2.083094954039992 L-15.74467558585996,2.0414843811409797 L-15.748668840211455,1.9998597349113945 L-15.75,1.9582280514217596 " />
			<path d="M-15.75,1.9582280514217454 L-15.748814053966527,1.9189325945396027 L-15.745256394465217,1.8796430554087251 L-15.739327557266504,1.84036535088919 L-15.731028435231465,1.801105396058822 L-15.720360278177349,1.7618691033224092 L-15.70732469268937,1.7226623815213151 L-15.691923641878754,1.6834911350436295 L-15.6741594450871,1.6443612629349884 L-15.654034777537106,1.6052786580102008 L-15.631552669929683,1.566249205965811 L-15.5795300319453,1.4883732623961035 L-15.518122867625824,1.4107803417823024 L-15.447368166350879,1.3335171831984 L-15.367308548106825,1.2566303270820713 L-15.277992237814068,1.180166087200456 L-15.179473036278178,1.1041705227524772 L-15.07181028778229,1.0286894106244993 L-14.955068844340325,0.9537682178160491 L-14.829319026632573,0.8794520740521921 L-14.694636581647135,0.8057857445990704 L-14.551102637052765,0.7328136032989852 L-14.398803652330606,0.6605796058412516 L-14.23783136669423,0.5891272632849354 L-14.068282743829366,0.5184996158494164 L-13.890259913486592,0.4487392069885727 L-13.703870109962205,0.3798880577641921 L-13.509225607504286,0.3119876415340572 L-13.306443652682889,0.24507885896994486 L-13.095646393765087,0.1792020134205896 L-12.87696080713744,0.1143967866344584 L-12.650518620820154,0.05070221485694448 L-12.416456235119046,-0.011843334683608209 L-12.174914640463106,-0.07320218688688462 L-11.92603933247713,-0.13333738147467344 L-11.669980224340605,-0.19221269525435436 L-11.406891556485606,-0.24979266393839583 L-11.136931803688126,-0.30604260350671786 L-10.860263579608805,-0.3609286310990434 L-10.57705353884054,-0.4144176854246735 L-10.287472276521978,-0.46647754667736563 L-9.991694225577412,-0.5170768559433438 L-9.689897551644869,-0.5661851340907373 L-9.382264045755822,-0.6137728001290677 L-9.068979014831063,-0.6598111890277296 L-8.750231170058735,-0.7042725689827376 L-8.426212513221781,-0.747130158121325 L-8.097118221043242,-0.7883581406343418 L-7.763146527619101,-0.8279316823267375 L-7.424498605009466,-0.8658269455767458 L-7.081378442060059,-0.9020211036947801 L-6.733992721526949,-0.9364923546733765 L-6.382550695578598,-0.9692199343199095 L-6.0272640597501725,-1.0001841287641622 L-5.668346825426073,-1.0293662863332276 L-5.306015190927477,-1.0567488287865767 L-4.940487411282554,-1.0823152619045355 L-4.571983666757797,-1.1060501854237847 L-3.8269378334764235,-1.1479694273893573 L-3.0726725717540266,-1.1824055675577079 L-2.3110049726719426,-1.2092756462509213 L-1.543769960190577,-1.2285149310958843 L-0.772815870656834,-1.2400770729702428 L-2.8478411853293012e-15,-1.2439342176614983 L0.7728158706568281,-1.2400770729702428 L1.5437699601905714,-1.2285149310958843 L2.311004972671937,-1.2092756462509218 L3.072672571754021,-1.1824055675577083 L3.8269378334764177,-1.1479694273893577 L4.5719836667577916,-1.1060501854237852 L4.9404874112825485,-1.0823152619045364 L5.3060151909274715,-1.0567488287865772 L5.668346825426068,-1.0293662863332276 L6.027264059750167,-1.0001841287641626 L6.382550695578593,-0.9692199343199099 L6.733992721526944,-0.9364923546733774 L7.081378442060054,-0.9020211036947805 L7.424498605009462,-0.8658269455767462 L7.763146527619096,-0.827931682326738 L8.097118221043239,-0.7883581406343427 L8.426212513221778,-0.747130158121325 L8.75023117005873,-0.704272568982738 L9.068979014831058,-0.6598111890277301 L9.382264045755816,-0.6137728001290681 L9.689897551644863,-0.5661851340907382 L9.991694225577408,-0.5170768559433443 L10.287472276521973,-0.4664775466773661 L10.577053538840529,-0.41441768542467483 L10.860263579608803,-0.36092863109904383 L11.136931803688121,-0.3060426035067183 L11.4068915564856,-0.24979266393839716 L11.66998022434061,-0.19221269525435303 L11.926039332477135,-0.1333373814746721 L12.174914640463111,-0.07320218688688329 L12.416456235119051,-0.01184333468360621 L12.65051862082016,0.05070221485694604 L12.876960807137444,0.11439678663446018 L13.095646393765087,0.1792020134205905 L13.306443652682885,0.2450788589699442 L13.509225607504284,0.31198764153405656 L13.703870109962203,0.37988805776419143 L13.890259913486588,0.4487392069885723 L14.068282743829363,0.5184996158494157 L14.237831366694229,0.5891272632849347 L14.398803652330605,0.660579605841251 L14.551102637052763,0.7328136032989845 L14.694636581647133,0.8057857445990697 L14.829319026632572,0.8794520740521914 L14.955068844340323,0.9537682178160485 L15.071810287782286,1.0286894106244973 L15.179473036278173,1.1041705227524738 L15.277992237814065,1.1801660872004527 L15.367308548106823,1.2566303270820707 L15.447368166350877,1.3335171831983992 L15.518122867625822,1.4107803417823017 L15.579530031945302,1.4883732623961055 L15.631552669929683,1.5662492059658133 L15.654034777537108,1.6052786580102043 L15.674159445087101,1.6443612629349906 L15.691923641878754,1.6834911350436301 L15.70732469268937,1.7226623815213173 L15.720360278177349,1.7618691033224128 L15.731028435231465,1.8011053960588241 L15.739327557266504,1.8403653508891906 L15.745256394465217,1.8796430554087271 L15.748814053966527,1.918932594539605 L15.75,1.9582280514217176 " />
			<path d="M15.75,1.958228051421747 L15.748668840211455,1.9998597349113945 L15.74467558585996,2.0414843811409797 L15.738020911949913,2.083094954039992 L15.728705943361863,2.1246844199168216 L15.716732254662363,2.16624574864771 L15.702101869837813,2.207771914865093 L15.684817261952341,2.249255899145144 L15.664881352729749,2.2906906891943066 " />
			<path d="M15.664881352729749,2.290690689194307 L15.639447366544024,2.336966293296301 L15.610706425373339,2.383161813346243 L15.578664606478377,2.429267481319616 L15.543328685089126,2.4752735481910895 L15.504706132972242,2.5211702859959453 L15.46280511685116,2.566947989887055 L15.417634496679227,2.6125969801869626 L15.369203823766288,2.6581076044346523 L15.317523338759054,2.7034702394265544 L15.26260396947572,2.7486752932513685 L15.204457328595288,2.7937132073182704 L15.143095711202065,2.8385744583780728 L15.010780123498536,2.9277290672620304 L14.865769112764779,3.0160637170617104 " />
			<path d="M15.809627469130792,1.124999834886948 L15.689358005484442,1.1925684408134913 L15.562103193773616,1.2596060813782346 L15.427919691456978,1.3260829095184363 L15.286867240843161,1.3919693278609837 L15.139008642491788,1.4572360018999857 L14.984409727252885,1.5218538730573277 L14.823139326957103,1.5857941716203758 L14.655269243769846,1.6490284295510724 L14.480874218222896,1.7115284931607138 L14.300031895937813,1.773266535644773 L14.112822793055887,1.8342150694721853 L13.91933026039007,1.8943469586235762 L13.71964044631483,1.9536354306729902 L13.513842258410433,2.0120540887077336 L13.302027323878772,2.069576923081034 L13.08428994874833,2.126178322992269 L12.860727075886459,2.181833087889627 L12.631438241837657,2.2365164386901064 L12.396525532507063,2.290204028811869 L12.15609353770893,2.3428719550140293 L11.910249304600248,2.394496768039057 L11.65910229002031,2.4450554830530526 L11.402764311757437,2.494525589879249 L11.141349498764487,2.542885063020182 L10.603757134335513,2.636186488271019 L10.047282495761896,2.724793615516222 L9.47291650602942,2.808548660675431 L8.88168194752928,2.887302479845813 L8.274631640773674,2.960914834884919 L7.652846569622048,3.0292546431349057 L7.0174339563564505,3.0922002108434534 L6.369525290033698,3.149639449865709 L5.710274311625336,3.2014700772613778 L5.040854959533265,3.247599797431533 L4.362459279139497,3.2879464664708182 L3.6762953001125154,3.3224382384423676 L2.9835848852502007,3.3510136933149735 L2.28556155468986,3.373621946334687 L1.5834682893598513,3.390222738636086 L0.8785553175842635,3.400786508931856 L0.17207788878201077,3.4052944461530332 L-0.5347059617751962,3.403738522946167 L-1.2405376531656944,3.3961215099677475 L-1.9441602999923577,3.3824569709504604 L-2.644320950537843,3.362769238550034 L-3.339772817915068,3.337093371015706 L-4.029277500239881,3.3054750897614573 L-4.711607185872438,3.2679706979491816 L-5.385546839800344,3.224646980228778 L-6.0498963672702715,3.175581083813692 L-6.703472750815247,3.1208603811036797 L-7.345112156872104,3.0605823140994266 L-7.9736720082379104,2.9948542208860722 L-8.58803301867482,2.923793144494624 L-9.187101186040401,2.8475256244816216 L-9.76980974039414,2.7661874715981942 L-10.33512104361113,2.6799235259497607 L-10.882028437120335,2.5888873990770143 L-11.409558034477065,2.493241200417477 L-11.665761209238843,2.443742236272605 L-11.916770455577602,2.393155248634722 L-12.162474017043369,2.3415027602683707 L-12.402762499427858,2.288807768329299 L-12.63752891946988,2.235093734125473 L-12.866668752487335,2.1803845726714353 L-13.090079978914575,2.12470464204066 L-13.307663129724414,2.068078732520647 L-13.519321330714543,2.010532055575584 L-13.724960345638712,1.9520902326214828 L-13.924488618163352,1.8927792836187978 L-14.117817312631093,1.8326256154876 L-14.304860353612884,1.771656010350466 L-14.485534464231254,1.7098976136083168 L-14.659759203237524,1.6473779218545115 L-14.82745700082655,1.584124770632582 L-14.98855319317299,1.5201663220430637 L-15.14297605567377,1.4555310522049223 L-15.290656834881919,1.3902477385771785 L-15.431529779117547,1.3243454471463647 L-15.565532167742372,1.2578535194855225 L-15.692604339084724,1.190801559690501 L-15.812689717002623,1.1232194211993694 L-15.925734836073081,1.0551371935008182 L-16.031689365396424,0.9865851887374693 L-16.130506131005042,0.9175939282100426 L-16.222141136866583,0.8481941287884077 L-16.30655358447224,0.7784166892355604 L-16.383705891001394,0.7082926764506148 L-16.453563706054563,0.6378533116369389 L-16.516095926947177,0.5671299564015833 L-16.57127471255738,0.49615409879220473 L-16.619075495721663,0.42495733927769613 L-16.659476994172902,0.3535713766787697 " />
			<path d="M-16.65947699417291,0.35357137667875466 L-16.680804904443185,0.3092244680460533 L-16.69927705924213,0.2648246201534331 L-16.71489029613499,0.22037943425930273 L-16.727641942134035,0.17589651938394152 L-16.737529814156204,0.13138349100683405 L-16.744552219396812,0.08684796976289941 L-16.74870795561938,0.04229758013783775 L-16.749996311361443,-0.002260050837183944 L-16.748417066056376,-0.04681729489127582 L-16.74397049007113,-0.09136652381978892 L-16.73665734465996,-0.13590011079026765 L-16.726478881834094,-0.18041043164815962 L-16.713436844147388,-0.22488986622207333 L-16.697533464398003,-0.2693307996283521 L-16.67877146524614,-0.3137256235747431 L-16.65715405874794,-0.3580667376629376 L-16.632684945805554,-0.40234655068975994 L-16.60536831553358,-0.4465574819467824 L-16.57520884454185,-0.49069196251814323 L-16.542211696134828,-0.5347424365763453 L-16.506382519427625,-0.5787013626758156 L-16.467727448378877,-0.6225612150440003 L-16.42625310074063,-0.6663144848697784 L-16.381966576925354,-0.7099536815889711 L-16.2849878083398,-0.7968599923765626 L-16.176857550879426,-0.8832206364774877 L-16.05764984901864,-0.9689764766192321 L-15.927446332745554,-1.0540687896815506 L-15.786336161664103,-1.138439306908356 L-15.634415963940151,-1.2220302538084853 L-15.471789770133295,-1.3047843897179996 L-15.298568941959756,-1.386645046996936 L-15.114872096035096,-1.4675561698336665 L-14.920825022648984,-1.5474623526303013 L-14.716560599627645,-1.6263088779428372 L-14.502218701342958,-1.7040417539500836 L-14.27794610293055,-1.7806077514257004 L-14.043896379782403,-1.8559544401880321 L-13.800229802382873,-1.9300302250027823 L-13.547113226560102,-2.002784380913939 L-13.284719979227969,-2.0741670879787546 L-13.013229739696827,-2.1441294653830045 L-12.732828416634296,-2.212623604913158 L-12.443708020760402,-2.2796026037625357 L-12.146066533364166,-2.3450205966489945 L-11.84010777073176,-2.4088327872221496 L-11.526041244578991,-2.4709954787386175 L-11.204082018583737,-2.531466103984286 L-10.87445056111657,-2.5902032544231073 L-10.537372594270387,-2.647166708552469 L-10.19307893929242,-2.7023174594457187 L-9.841805358524548,-2.7556177414629763 L-9.48379239396005,-2.807031056111953 L-9.119285202527408,-2.856522197041065 L-8.748533388213914,-2.904057274147723 L-8.371790831144097,-2.9496037367852983 L-7.989315513729928,-2.993130396052861 L-7.601369344011948,-3.03460744615244 L-7.208217976312196,-3.0740064847991717 L-6.8101306293218125,-3.1113005326703607 L-6.407379901747868,-3.146464051880144 L-6.000241585645638,-3.179472963467097 L-5.58899447756419,-3.210304663882804 L-5.173920187634558,-3.238938040470124 L-4.7553029467312635,-3.2653534859205195 L-4.333429411839237,-3.2895329117005807 L-3.9085884697593944,-3.311459760438527 L-3.481071039287298,-3.3311190172622176 L-3.0511698720004152,-3.3484972200809007 L-2.6191793517902755,-3.3635824688036653 L-2.185395293276859,-3.37636443348828 L-1.750114739243342,-3.3868343614148384 L-1.313635757229772,-3.394985083079366 L-0.8762572354250324,-3.4008110171032944 L-0.43827867799685055,-3.404308174055423 L-3.0286564986835422e-15,-3.4054741591837687 L0.4382786779968445,-3.404308174055423 L0.8762572354250262,-3.4008110171032944 L1.3136357572297659,-3.394985083079366 L1.7501147392433356,-3.3868343614148384 L2.185395293276853,-3.37636443348828 L2.6191793517902693,-3.3635824688036657 L3.0511698720004095,-3.3484972200809007 L3.481071039287292,-3.3311190172622176 L3.9085884697593887,-3.311459760438527 L4.333429411839231,-3.289532911700581 L4.755302946731258,-3.2653534859205195 L5.173920187634552,-3.2389380404701242 L5.588994477564185,-3.2103046638828046 L6.000241585645632,-3.1794729634670973 L6.407379901747861,-3.146464051880145 L6.810130629321807,-3.111300532670361 L7.2082179763121905,-3.0740064847991717 L7.6013693440119425,-3.034607446152441 L7.989315513729922,-2.993130396052862 L8.37179083114409,-2.949603736785299 L8.74853338821391,-2.9040572741477235 L9.119285202527402,-2.8565221970410652 L9.483792393960046,-2.807031056111954 L9.84180535852454,-2.7556177414629768 L10.193078939292413,-2.7023174594457195 L10.537372594270382,-2.64716670855247 L10.874450561116566,-2.590203254423108 L11.204082018583726,-2.5314661039842883 L11.526041244578977,-2.4709954787386206 L11.840107770731747,-2.4088327872221527 L12.146066533364152,-2.3450205966489976 L12.443708020760397,-2.279602603762536 L12.732828416634302,-2.2126236049131567 L13.013229739696833,-2.1441294653830028 L13.284719979227974,-2.0741670879787533 L13.547113226560104,-2.002784380913939 L13.80022980238287,-1.930030225002783 L14.0438963797824,-1.8559544401880328 L14.277946102930546,-1.780607751425701 L14.502218701342956,-1.7040417539500845 L14.716560599627641,-1.6263088779428378 L14.92082502264898,-1.5474623526303017 L15.114872096035093,-1.4675561698336672 L15.298568941959754,-1.3866450469969367 L15.471789770133293,-1.3047843897180005 L15.634415963940148,-1.222030253808486 L15.786336161664101,-1.138439306908357 L15.927446332745548,-1.0540687896815526 L16.057649849018638,-0.9689764766192359 L16.176857550879422,-0.8832206364774915 L16.284987808339796,-0.7968599923765662 L16.38196657692535,-0.709953681588975 L16.426253100740624,-0.6663144848697822 L16.467727448378874,-0.622561215044004 L16.506382519427618,-0.5787013626758194 L16.542211696134824,-0.5347424365763492 L16.57520884454185,-0.49069196251814695 L16.60536831553358,-0.44655748194678624 L16.632684945805554,-0.40234655068976377 L16.657154058747935,-0.3580667376629384 L16.67877146524614,-0.3137256235747409 L16.697533464398003,-0.2693307996283499 L16.713436844147388,-0.22488986622207108 L16.726478881834094,-0.18041043164815734 L16.73665734465996,-0.13590011079026537 L16.74397049007113,-0.09136652381978667 L16.748417066056376,-0.04681729489127357 L16.749996311361443,-0.002260050837183208 L16.74870795561938,0.04229758013783697 L16.744552219396812,0.08684796976289864 L16.737529814156204,0.1313834910068333 L16.727641942134035,0.1758965193839408 L16.71489029613499,0.22037943425930195 L16.69927705924213,0.2648246201534323 L16.680804904443185,0.3092244680460525 L16.659476994172927,0.3535713766787238 " />
			<path d="M16.65947699417291,0.3535713766787547 L16.632428151721424,0.40278511437452597 L16.601862388889106,0.4519136833165279 L16.567786168794463,0.5009466952882105 L16.530206696840818,0.5498737822785073 L16.4891319191927,0.5986845986741477 L16.444570521095677,0.6473688234472323 L16.396531925039813,0.6959161623376108 L16.345026288767322,0.7443163500295982 L16.290064503124707,0.7925591523225731 L16.23165818975989,0.8406343682949944 L16.16981969866483,0.8885318324613827 L16.1045621055641,0.9362414169218072 L16.03589920915006,0.9837530335034282 L15.96384552816511,1.031056635893635 L15.809627469130795,1.1249998348869452 " />
			<path d="M-12.250000000000002,10.770254282819607 L-12.250000000000002,4.895570128554367 " />
			<path d="M12.250000000000002,10.770254282819607 L12.250000000000002,4.895570128554367 " />
			<path d="M-15.750000000000002,4.8955701285543665 L-15.750000000000002,1.9582280514217465 " />
			<path d="M15.750000000000002,4.8955701285543665 L15.750000000000002,1.9582280514217465 " />
			<path d="M15.664881352729749,2.2906906891943137 L16.659476994172913,0.35357137667875094 " />
			<path d="M-15.66488135272975,2.2906906891943066 L-16.65947699417291,0.35357137667875804 " />

       </g>

       <!-- solid lines -->
       <g  stroke="rgb(0,0,0)" fill="none">
			<path d="M-18.75,-1.491823368209545e-15 L-18.74858815948396,-0.04678030581207614 L-18.74435285055383,-0.09355356668216866 L-18.737294711031552,-0.14031273872923422 L-18.727414803846983,-0.187050780193958 L-18.714714616877796,-0.23376065249921138 L-18.69919606272544,-0.2804353213100377 L-18.680861478427087,-0.32706775759299683 L-18.65971362510369,-0.3736509386747122 L-18.635755687544172,-0.4201778492994594 L-18.608991273725813,-0.46664148268563765 L-18.579424414270875,-0.5130348415809656 L-18.547059561839642,-0.559350939316242 L-18.511901590459843,-0.605582800857512 L-18.473955794792648,-0.6517234638564813 L-18.433227889335306,-0.6977659796990211 L-18.38972400756057,-0.7437034145516033 L-18.343450700993017,-0.7895288504055101 L-18.29441493822241,-0.8352353861186612 L-18.1880859973977,-0.9262642431205841 L-18.0708012336645,-1.016735153177702 L-17.942631294978916,-1.1065936199967232 L-17.803653386119432,-1.1957855161972593 L-17.653951222181636,-1.2842571159161367 L-17.493614978151353,-1.371955127169853 L-17.322741234586623,-1.4588267239556685 L-17.141432919441197,-1.544819578072018 L-16.94979924606456,-1.6298818906390613 L-16.747955647415914,-1.7139624233003934 L-16.536023706531658,-1.7970105290871121 L-16.31413108328834,-1.8789761829256604 L-16.0824114375051,-1.959810011771059 L-15.84100434843201,-2.0394633243473836 L-15.590055230672723,-2.117888140477568 L-15.32971524659219,-2.195037219984867 L-15.060141215262089,-2.270864091148574 L-14.781495517998865,-2.345323078696851 L-14.493946000551317,-2.4183693313197994 L-14.197665871996584,-2.4899588486862148 L-13.892833600405483,-2.5600485079477395 L-13.579632805340006,-2.628596089714456 L-13.258252147247768,-2.695560303486267 L-12.928885213820006,-2.76090081252475 L-12.591730403381593,-2.8245782581505003 L-12.246990805383309,-2.8865542834513245 L-11.894874078068346,-2.9467915563870126 L-11.535592323386748,-3.005253792276767 L-11.169361959233122,-3.0619057756557315 L-10.796403589084598,-3.116713381487472 L-10.41694186911754,-3.1696435957196245 L-10.031205372883074,-3.2206645351703234 L-9.639426453622908,-3.2697454667334394 L-9.241841104308454,-3.316856825891053 L-8.83868881548746,-3.361970234522015 L-8.43021243102388,-3.4050585179958657 L-8.016658001817797,-3.4460957215418135 L-7.598274637593569,-3.4850571258829244 L-7.175314356845444,-3.521919262126082 L-6.748031935031039,-3.556659925898779 L-6.316684751104139,-3.589258190724195 L-5.881532632479231,-3.619694420626527 L-5.442837698521187,-3.647950281958966 L-5.0008642026543635,-3.6740087544472 L-4.555878373186219,-3.6978541414417907 L-4.108148252941314,-3.71947207937325 L-3.6579435378024123,-3.738849546404113 L-3.2055354142556567,-3.7559748702728117 L-2.751196396038027,-3.7708377353246054 L-2.295200159985299,-3.7834291887253437 L-1.8378213811792585,-3.793741645854323 L-1.3793355674937628,-3.8017688948729766 L-0.9200188936390881,-3.8075061004666546 L-0.46014803480460725,-3.8109498067572347 L-3.3902871253920255e-15,-3.812097939384816 L0.4601480348046004,-3.8109498067572347 L0.9200188936390812,-3.8075061004666546 L1.379335567493756,-3.8017688948729766 L1.8378213811792516,-3.793741645854323 L2.2952001599852925,-3.7834291887253437 L2.7511963960380204,-3.770837735324606 L3.20553541425565,-3.755974870272812 L3.6579435378024057,-3.7388495464041136 L4.108148252941308,-3.7194720793732503 L4.555878373186212,-3.697854141441791 L5.000864202654357,-3.6740087544472004 L5.44283769852118,-3.6479502819589666 L5.8815326324792245,-3.619694420626528 L6.316684751104133,-3.5892581907241956 L6.748031935031033,-3.5566599258987797 L7.175314356845438,-3.5219192621260826 L7.598274637593563,-3.485057125882925 L8.01665800181779,-3.4460957215418144 L8.430212431023874,-3.405058517995866 L8.838688815487455,-3.3619702345220155 L9.241841104308447,-3.3168568258910534 L9.639426453622905,-3.2697454667334402 L10.031205372883068,-3.220664535170324 L10.416941869117535,-3.1696435957196254 L10.796403589084592,-3.1167133814874726 L11.169361959233115,-3.0619057756557324 L11.535592323386743,-3.005253792276768 L11.894874078068343,-2.9467915563870135 L12.246990805383302,-2.8865542834513254 L12.59173040338158,-2.824578258150502 L12.928885213820003,-2.760900812524751 L13.258252147247763,-2.695560303486268 L13.57963280534,-2.628596089714457 L13.89283360040549,-2.5600485079477378 L14.19766587199659,-2.489958848686213 L14.493946000551324,-2.418369331319798 L14.78149551799887,-2.345323078696849 L15.060141215262094,-2.2708640911485727 L15.329715246592194,-2.1950372199848656 L15.590055230672723,-2.1178881404775676 L15.841004348432007,-2.039463324347384 L16.0824114375051,-1.95981001177106 L16.314131083288338,-1.8789761829256613 L16.536023706531655,-1.7970105290871128 L16.747955647415907,-1.7139624233003943 L16.949799246064558,-1.6298818906390622 L17.141432919441197,-1.5448195780720189 L17.322741234586623,-1.4588267239556694 L17.49361497815135,-1.3719551271698538 L17.653951222181632,-1.2842571159161376 L17.803653386119432,-1.19578551619726 L17.942631294978913,-1.1065936199967257 L18.070801233664493,-1.016735153177706 L18.188085997397696,-0.9262642431205883 L18.29441493822241,-0.8352353861186622 L18.343450700993014,-0.7895288504055127 L18.38972400756057,-0.7437034145516043 L18.433227889335306,-0.6977659796990203 L18.473955794792644,-0.6517234638564823 L18.511901590459843,-0.6055828008575113 L18.547059561839642,-0.5593509393162397 L18.579424414270875,-0.5130348415809649 L18.608991273725813,-0.4666414826856351 L18.635755687544176,-0.4201778492994552 L18.65971362510369,-0.37365093867470967 L18.680861478427087,-0.32706775759299594 L18.69919606272544,-0.28043532131003507 L18.714714616877796,-0.23376065249920716 L18.727414803846983,-0.18705078019395546 L18.737294711031552,-0.1403127387292334 L18.74435285055383,-0.09355356668216615 L18.74858815948396,-0.04678030581207362 L18.75,-3.452616678296239e-14 " />
			<path d="M17.697344181862828,7.134012327646152 L17.589204463549482,7.195153581049137 L17.47595499819182,7.2559112318415195 L17.35762868529487,7.316267629638532 L17.23425989921189,7.376205240621298 L17.105884479158416,7.435706652630488 L16.972539718800835,7.49475458022464 L16.83426435542238,7.5533318697016565 L16.691098558669765,7.611421504082038 L16.543083918883717,7.6690066080523955 L16.390263435016795,7.726070452867809 L16.232681502141972,7.782596461211607 L16.070383898555665,7.838568212011158 L15.731831628360686,7.948784066482789 L15.375000000000012,8.056589952677196 " />
			<path d="M-15.374999999999996,8.056589952677202 L-15.576568977933922,7.996670122056699 L-15.772489331696555,7.93598078300043 L-15.962690013520731,7.874543943645619 L-16.147102049798065,7.812381883199981 L-16.325658566091246,7.749517143862489 L-16.498294811385122,7.685972522648752 L-16.664948181567752,7.621771063124003 L-16.8255582421329,7.55693604704667 L-16.98006675009576,7.491490985925578 L-17.128417675113962,7.425459612493825 L-17.270557219806197,7.358865872102441 L-17.406433839261066,7.291733914036944 L-17.535998259729123,7.224088082759938 L-17.659203496491322,7.155952909082939 L-17.776004870897353,7.087353101270615 L-17.88636002656773,7.018313536080685 L-17.99022894475374,6.948859249742711 L-18.087573958849674,6.879015428879058 L-18.17835976805211,6.808807401371324 L-18.26255345016123,6.738260627175531 L-18.340124473519623,6.66740068908944 L-18.411044708084123,6.596253283475299 L-18.475288435626823,6.524844210941421 L-18.532832359061377,6.453199366985958 L-18.58365561089141,6.381344732606259 L-18.627739760777782,6.309306364877224 L-18.665068822222132,6.237110387502078 L-18.695629258364118,6.16478298133897 L-18.71940998689039,6.0923503749068555 L-18.736402384053445,6.0198388348740925 L-18.74660028779888,5.9472746565331995 L-18.75,5.874684154265255 " />
			<path d="M-18.75,5.874684154265238 L-18.74858815948396,5.827903848453164 L-18.74435285055383,5.781130587583071 L-18.737294711031552,5.734371415536006 L-18.727414803846983,5.687633374071282 L-18.714714616877796,5.640923501766029 L-18.69919606272544,5.594248832955202 L-18.680861478427087,5.547616396672243 L-18.65971362510369,5.501033215590528 L-18.635755687544172,5.454506304965781 L-18.608991273725813,5.408042671579603 L-18.579424414270875,5.361649312684275 L-18.547059561839642,5.315333214948998 L-18.511901590459843,5.269101353407728 L-18.473955794792648,5.222960690408758 L-18.433227889335306,5.176918174566219 L-18.38972400756057,5.130980739713637 L-18.343450700993017,5.08515530385973 L-18.29441493822241,5.0394487681465785 L-18.1880859973977,4.948419911144656 L-18.0708012336645,4.857949001087538 L-17.942631294978916,4.7680905342685165 L-17.803653386119432,4.678898638067981 L-17.653951222181636,4.5904270383491035 L-17.493614978151353,4.502729027095387 L-17.322741234586623,4.415857430309572 L-17.141432919441197,4.329864576193222 L-16.94979924606456,4.244802263626179 L-16.747955647415914,4.1607217309648465 L-16.536023706531658,4.077673625178128 L-16.31413108328834,3.99570797133958 L-16.0824114375051,3.914874142494181 L-15.84100434843201,3.8352208299178563 L-15.590055230672723,3.756796013787672 L-15.32971524659219,3.679646934280373 L-15.060141215262089,3.603820063116666 L-14.781495517998865,3.529361075568389 L-14.493946000551317,3.4563148229454406 L-14.197665871996584,3.384725305579025 L-13.892833600405483,3.3146356463175004 L-13.579632805340006,3.246088064550784 L-13.258252147247768,3.1791238507789727 L-12.928885213820006,3.11378334174049 L-12.591730403381593,3.0501058961147396 L-12.246990805383309,2.9881298708139155 L-11.894874078068346,2.9278925978782273 L-11.535592323386748,2.869430361988473 L-11.169361959233122,2.8127783786095084 L-10.796403589084598,2.757970772777768 L-10.41694186911754,2.7050405585456154 L-10.031205372883074,2.6540196190949166 L-9.639426453622908,2.6049386875318006 L-9.241841104308454,2.557827328374187 L-8.83868881548746,2.512713919743225 L-8.43021243102388,2.4696256362693743 L-8.016658001817797,2.4285884327234264 L-7.598274637593569,2.3896270283823156 L-7.175314356845444,2.3527648921391577 L-6.748031935031039,2.3180242283664607 L-6.316684751104139,2.2854259635410448 L-5.881532632479231,2.254989733638713 L-5.442837698521187,2.2267338723062737 L-5.0008642026543635,2.20067539981804 L-4.555878373186219,2.1768300128234492 L-4.108148252941314,2.15521207489199 L-3.6579435378024123,2.1358346078611268 L-3.2055354142556567,2.118709283992428 L-2.751196396038027,2.1038464189406345 L-2.295200159985299,2.091254965539896 L-1.8378213811792585,2.0809425084109168 L-1.3793355674937628,2.0729152593922633 L-0.9200188936390881,2.0671780537985853 L-0.46014803480460725,2.063734347508005 L-3.3902871253920255e-15,2.062586214880424 L0.4601480348046004,2.063734347508005 L0.9200188936390812,2.0671780537985853 L1.379335567493756,2.0729152593922633 L1.8378213811792516,2.0809425084109168 L2.2952001599852925,2.091254965539896 L2.7511963960380204,2.103846418940634 L3.20553541425565,2.1187092839924277 L3.6579435378024057,2.1358346078611263 L4.108148252941308,2.1552120748919896 L4.555878373186212,2.176830012823449 L5.000864202654357,2.2006753998180395 L5.44283769852118,2.2267338723062733 L5.8815326324792245,2.254989733638712 L6.316684751104133,2.2854259635410443 L6.748031935031033,2.3180242283664603 L7.175314356845438,2.3527648921391573 L7.598274637593563,2.389627028382315 L8.01665800181779,2.4285884327234255 L8.430212431023874,2.469625636269374 L8.838688815487455,2.5127139197432244 L9.241841104308447,2.5578273283741866 L9.639426453622905,2.6049386875317997 L10.031205372883068,2.654019619094916 L10.416941869117535,2.7050405585456145 L10.796403589084592,2.7579707727777674 L11.169361959233115,2.8127783786095075 L11.535592323386743,2.869430361988472 L11.894874078068343,2.9278925978782264 L12.246990805383302,2.9881298708139146 L12.59173040338158,3.050105896114738 L12.928885213820003,3.113783341740489 L13.258252147247763,3.179123850778972 L13.57963280534,3.246088064550783 L13.89283360040549,3.314635646317502 L14.19766587199659,3.384725305579027 L14.493946000551324,3.456314822945442 L14.78149551799887,3.529361075568391 L15.060141215262094,3.6038200631166672 L15.329715246592194,3.6796469342803744 L15.590055230672723,3.7567960137876724 L15.841004348432007,3.835220829917856 L16.0824114375051,3.91487414249418 L16.314131083288338,3.995707971339579 L16.536023706531655,4.077673625178127 L16.747955647415907,4.160721730964846 L16.949799246064558,4.244802263626178 L17.141432919441197,4.329864576193221 L17.322741234586623,4.41585743030957 L17.49361497815135,4.502729027095386 L17.653951222181632,4.590427038349103 L17.803653386119432,4.67889863806798 L17.942631294978913,4.768090534268515 L18.070801233664493,4.857949001087534 L18.188085997397696,4.948419911144652 L18.29441493822241,5.039448768146578 L18.343450700993014,5.085155303859727 L18.38972400756057,5.130980739713635 L18.433227889335306,5.17691817456622 L18.473955794792644,5.222960690408757 L18.511901590459843,5.269101353407729 L18.547059561839642,5.315333214949 L18.579424414270875,5.361649312684275 L18.608991273725813,5.408042671579604 L18.635755687544176,5.4545063049657845 L18.65971362510369,5.50103321559053 L18.680861478427087,5.547616396672244 L18.69919606272544,5.594248832955205 L18.714714616877796,5.640923501766033 L18.727414803846983,5.687633374071284 L18.737294711031552,5.734371415536007 L18.74435285055383,5.781130587583074 L18.74858815948396,5.8279038484531664 L18.75,5.874684154265205 " />
			<path d="M18.75,5.87468415426524 L18.74896225993265,5.914790832620629 L18.745849154600407,5.954893071476595 L18.740661028599977,5.99498643182513 L18.733398456216825,6.035066475641013 L18.724062241361608,6.075128766373059 L18.712653417481167,6.115168869435208 L18.683623223401277,6.195164786976214 L18.646320727294228,6.27501880952416 L18.600762445095423,6.35469558116415 L18.546968548046035,6.434159824460343 L18.48496285376208,6.513376356075277 L18.414772815688988,6.592310102347528 L18.336429510946388,6.670926114820822 L18.249967626568537,6.749189585717696 L18.15542544414637,6.827065863350883 L18.052844822878065,6.904520467465584 L17.942271181035615,6.981519104505833 L17.823753475855554,7.058027682798208 L17.69734418186283,7.134012327646149 " />
			<path d="M-15.375,5.874684154265239 L-15.373842290776846,5.836324303499337 L-15.37036933745414,5.797970229585862 L-15.364581663045872,5.759627708507268 L-15.356480139154526,5.721302514506195 L-15.346065985839793,5.683000419215887 L-15.333340771434862,5.644727190791009 L-15.318306412310212,5.606488593038983 L-15.300965172585027,5.568290384551976 L-15.281319663786222,5.5301383178396835 L-15.259372844455166,5.492038138463017 L-15.208588840708506,5.416016384025921 L-15.14864375172997,5.340270913902925 L-15.079573686199668,5.264847354332925 L-15.001420249342377,5.189791137647938 L-14.914230517866114,5.115147474906361 L-14.818057011604889,5.040961328659525 L-14.71295766188271,4.967277385867927 L-14.598995776617935,4.894140030983488 L-14.476240002188941,4.821593319214008 L-14.344764282084109,4.749680949985961 L-14.204647812361031,4.678446240621592 L-14.055974993941783,4.6079321002461855 L-13.89883538177294,4.53818100394121 L-13.733323630881047,4.4692349671589175 L-13.559539439355959,4.401135520413808 L-13.377587488296438,4.333923684266199 L-13.187577378754185,4.267639944612972 L-12.989623565714249,4.202324228300386 L-12.783845289151634,4.1380158790736346 L-12.570366502205596,4.074753633877648 L-12.349315796514913,4.012575599523409 L-12.120826324759069,3.9515192297338224 L-11.88503572045208,3.8916213025830046 L-11.642086015037199,3.832917898342544 L-11.392123552332496,3.775444377748094 L-11.135298900378805,3.719235360699386 L-10.87176676074317,3.664324705406501 L-10.601685875332405,3.610745487994945 L-10.325218930772907,3.5585299825818297 L-10.042532460414312,3.507709641835154 L-9.753796744016045,3.4583150780278897 L-9.459185705177134,3.410376044598291 L-9.15887680657116,3.36392141822754 L-8.85305094304937,3.318979181445513 L-8.541892332676383,3.275576405775148 L-8.225588405764121,3.233739235425575 L-7.904329691970784,3.19349287154382 L-7.5783097055329325,3.1548615570345766 L-7.247724828699718,3.1178685619571875 L-6.912774193439581,3.0825361695086304 L-6.573659561490593,3.048885662600953 L-6.230585202826727,3.016937311041242 L-5.883757772613264,2.9867103593218527 L-5.533386186725452,2.9582230150282416 L-5.1796814959053945,2.9314924378714005 L-4.463126912787373,2.883364923058888 L-3.735820266012699,2.842443758282972 L-2.999513700997978,2.8088275262138676 L-2.255981044751182,2.782597211299064 L-1.507013532566992,2.7638160046646956 L-0.7544154927840522,2.7525291518825834 L-2.780035442821461e-15,2.7487638439696913 L0.7544154927840465,2.7525291518825834 L1.5070135325669864,2.7638160046646956 L2.255981044751177,2.7825972112990636 L2.999513700997973,2.808827526213867 L3.7358202660126936,2.8424437582829714 L4.463126912787367,2.883364923058888 L5.179681495905389,2.9314924378714 L5.533386186725448,2.958223015028241 L5.883757772613259,2.9867103593218522 L6.230585202826721,3.016937311041242 L6.5736595614905875,3.048885662600952 L6.912774193439576,3.08253616950863 L7.247724828699713,3.1178685619571875 L7.578309705532927,3.154861557034576 L7.904329691970782,3.1934928715438193 L8.225588405764116,3.2337392354255745 L8.541892332676378,3.2755764057751473 L8.853050943049364,3.3189791814455125 L9.158876806571154,3.3639214182275397 L9.459185705177129,3.4103760445982902 L9.753796744016041,3.458315078027889 L10.042532460414307,3.5077096418351537 L10.325218930772897,3.5585299825818284 L10.601685875332402,3.610745487994944 L10.871766760743165,3.6643247054065 L11.1352989003788,3.7192353606993853 L11.392123552332501,3.7754443777480953 L11.642086015037204,3.8329178983425454 L11.885035720452084,3.891621302583006 L12.120826324759074,3.951519229733824 L12.349315796514917,4.0125755995234105 L12.5703665022056,4.07475363387765 L12.783845289151634,4.1380158790736346 L12.989623565714245,4.202324228300385 L13.187577378754183,4.267639944612971 L13.377587488296436,4.333923684266198 L13.559539439355955,4.401135520413808 L13.733323630881046,4.469234967158917 L13.898835381772939,4.538181003941209 L14.055974993941781,4.607932100246185 L14.20464781236103,4.678446240621591 L14.344764282084107,4.74968094998596 L14.47624000218894,4.821593319214007 L14.598995776617933,4.894140030983487 L14.712957661882708,4.967277385867925 L14.818057011604884,5.040961328659521 L14.91423051786611,5.115147474906358 L15.001420249342376,5.189791137647937 L15.079573686199666,5.264847354332924 L15.148643751729969,5.340270913902924 L15.208588840708508,5.416016384025923 L15.259372844455166,5.492038138463019 L15.281319663786224,5.530138317839687 L15.300965172585029,5.568290384551978 L15.318306412310212,5.606488593038983 L15.333340771434862,5.644727190791011 L15.346065985839793,5.68300041921589 L15.356480139154526,5.721302514506196 L15.364581663045872,5.759627708507269 L15.37036933745414,5.7979702295858635 L15.373842290776846,5.83632430349934 L15.375,5.8746841542652115 " />
			<path d="M14.511822229127517,11.802903384991955 L14.397045719739417,11.867304208535739 L14.275356054416095,11.931178251978046 L14.14681166595331,11.994494844358243 L14.011474278639454,12.057223582391869 L13.869408878616866,12.119334345069648 L13.72068368267686,12.180797308120962 L13.565370105503458,12.241582958334831 L13.403542725381596,12.301662107731534 L13.235279248386199,12.36100590757805 L13.060660471069369,12.419585862240613 L12.879770241663607,12.47737384286771 L12.692695419819664,12.534342100896964 L12.499525834898375,12.590463281379392 L12.300354242836516,12.645710436114685 L12.09527628160736,12.700057036591154 L11.884390425297362,12.75347698672416 L11.667797936820978,12.8059446353869 L11.44560281929638,12.857434788727542 L11.217911766105345,12.90792272226676 L10.98483410966137,12.957384192769922 L10.746481768910563,13.005795449888174 L10.502969195590541,13.05313324756284 L10.000933491217252,13.14449806852376 L9.479691148366447,13.231303190923583 L8.940243204915948,13.313381906863956 L8.383625662318659,13.390576585437207 L7.810907495977758,13.46273897545408 L7.223188602295923,13.529730490157855 L6.621597686341262,13.591422473378072 L6.0072900941866445,13.647696446612732 L5.381445594085389,13.698444336564418 L4.745266110744541,13.743568682693407 L4.099973417047007,13.78298282438913 L3.4468067876555892,13.81661106740053 L2.7870206190051126,13.844388829205714 L2.1218820202534237,13.866262763041686 L1.4526683798178017,13.88219086035598 L0.7806649121702119,13.89214253148344 L0.10716218960273857,13.896098664393197 L-0.5665463362965905,13.894051661393032 L-1.2391668186976232,13.886005453720628 L-1.909407500340961,13.871975493993684 L-2.5759811943378437,13.851988726533403 L-3.2376077561927143,13.826083535618341 L-3.8930165423009706,13.79430967176799 L-4.5409488502004045,13.756728156197676 L-5.180160335889863,13.71341116362825 L-5.809423403572704,13.664441883675655 L-6.427529563235585,13.609914361086556 L-7.033291751534888,13.54993331512684 L-7.625546611533566,13.484613938469902 L-8.203156726910176,13.414081675970875 L-8.76501280634938,13.338471983751733 L-9.310035813918827,13.25793006905989 L-9.837179041340983,13.172610611399929 L-10.345430118180237,13.082677465473992 L-10.592164603502512,13.036034395759629 L-10.833812956084715,12.988303346501361 L-11.070259141514265,12.939507237136482 L-11.301389623348891,12.889669498521542 L-11.52709341763444,12.838814061681365 L-11.747262146196972,12.78696534631787 L-11.961790088683701,12.73414824908426 L-12.170574233327647,12.68038813163016 L-12.373514326411703,12.625710808423504 L-12.570512920408355,12.570142534354966 L-12.761475420771898,12.513709992130929 L-12.946310131360736,12.456440279461008 L-13.12492829846794,12.398360896046302 L-13.297244153438877,12.339499730374632 L-13.463174953855502,12.27988504632907 L-13.622641023267514,12.219545469616227 L-13.775565789451301,12.158509974020795 L-13.921875821178297,12.096807867492949 L-14.06150086347509,12.034468778075293 L-14.194373871358373,11.971522639676106 L-14.320431042028543,11.907999677695699 L-14.439611845506418,11.84393039451284 L-14.551859053698479,11.779345554838148 L-14.657118767876561,11.714276170941526 L-14.7553404445589,11.648753487760741 L-14.846476919780038,11.582808967898252 L-14.930484431737941,11.51647427651355 L-15.007322641807505,11.449781266118212 L-15.076954653910303,11.382761961281002 L-15.1393470322313,11.315448543250351 L-15.194469817274015,11.247873334501612 L-15.242296540246455,11.180068783216479 L-15.282804235770843,11.112067447702074 L-15.315973452911118,11.04390198075713 L-15.341788264512864,10.975605113992806 L-15.360236274851184,10.907209642115673 L-15.371308625582875,10.83874840718038 L-15.375,10.77025428281962 " />
			<path d="M-15.375,10.770254282819606 L-15.373842290776846,10.731894432053705 L-15.37036933745414,10.693540358140229 L-15.364581663045872,10.655197837061635 L-15.356480139154526,10.616872643060562 L-15.346065985839793,10.578570547770253 L-15.333340771434862,10.540297319345376 L-15.318306412310212,10.50205872159335 L-15.300965172585027,10.463860513106344 L-15.281319663786222,10.42570844639405 L-15.259372844455166,10.387608267017384 L-15.208588840708506,10.31158651258029 L-15.14864375172997,10.235841042457293 L-15.079573686199668,10.160417482887294 L-15.001420249342377,10.085361266202305 L-14.914230517866114,10.010717603460728 L-14.818057011604889,9.936531457213892 L-14.71295766188271,9.862847514422294 L-14.598995776617935,9.789710159537854 L-14.476240002188941,9.717163447768375 L-14.344764282084109,9.645251078540328 L-14.204647812361031,9.57401636917596 L-14.055974993941783,9.503502228800553 L-13.89883538177294,9.433751132495576 L-13.733323630881047,9.364805095713285 L-13.559539439355959,9.296705648968175 L-13.377587488296438,9.229493812820566 L-13.187577378754185,9.163210073167338 L-12.989623565714249,9.097894356854752 L-12.783845289151634,9.033586007628001 L-12.570366502205596,8.970323762432017 L-12.349315796514913,8.908145728077777 L-12.120826324759069,8.847089358288189 L-11.88503572045208,8.787191431137371 L-11.642086015037199,8.728488026896912 L-11.392123552332496,8.67101450630246 L-11.135298900378805,8.614805489253754 L-10.87176676074317,8.559894833960868 L-10.601685875332405,8.506315616549312 L-10.325218930772907,8.454100111136198 L-10.042532460414312,8.40327977038952 L-9.753796744016045,8.353885206582257 L-9.459185705177134,8.305946173152659 L-9.15887680657116,8.259491546781907 L-8.85305094304937,8.21454930999988 L-8.541892332676383,8.171146534329516 L-8.225588405764121,8.129309363979942 L-7.904329691970784,8.089063000098188 L-7.5783097055329325,8.050431685588944 L-7.247724828699718,8.013438690511554 L-6.912774193439581,7.978106298062998 L-6.573659561490593,7.94445579115532 L-6.230585202826727,7.912507439595609 L-5.883757772613264,7.88228048787622 L-5.533386186725452,7.8537931435826085 L-5.1796814959053945,7.827062566425768 L-4.463126912787373,7.778935051613255 L-3.735820266012699,7.738013886837339 L-2.999513700997978,7.7043976547682345 L-2.255981044751182,7.678167339853431 L-1.507013532566992,7.659386133219063 L-0.7544154927840522,7.64809928043695 L-2.780035442821461e-15,7.644333972524059 L0.7544154927840465,7.64809928043695 L1.5070135325669864,7.659386133219063 L2.255981044751177,7.678167339853431 L2.999513700997973,7.7043976547682345 L3.7358202660126936,7.738013886837338 L4.463126912787367,7.778935051613255 L5.179681495905389,7.827062566425767 L5.533386186725448,7.8537931435826085 L5.883757772613259,7.882280487876219 L6.230585202826721,7.912507439595609 L6.5736595614905875,7.9444557911553195 L6.912774193439576,7.978106298062997 L7.247724828699713,8.013438690511554 L7.578309705532927,8.050431685588944 L7.904329691970782,8.089063000098186 L8.225588405764116,8.129309363979942 L8.541892332676378,8.171146534329514 L8.853050943049364,8.21454930999988 L9.158876806571154,8.259491546781907 L9.459185705177129,8.305946173152657 L9.753796744016041,8.353885206582255 L10.042532460414307,8.40327977038952 L10.325218930772897,8.454100111136196 L10.601685875332402,8.506315616549312 L10.871766760743165,8.559894833960868 L11.1352989003788,8.614805489253753 L11.392123552332501,8.671014506302463 L11.642086015037204,8.728488026896912 L11.885035720452084,8.787191431137373 L12.120826324759074,8.84708935828819 L12.349315796514917,8.908145728077779 L12.5703665022056,8.970323762432018 L12.783845289151634,9.033586007628003 L12.989623565714245,9.097894356854752 L13.187577378754183,9.163210073167338 L13.377587488296436,9.229493812820564 L13.559539439355955,9.296705648968175 L13.733323630881046,9.364805095713285 L13.898835381772939,9.433751132495576 L14.055974993941781,9.503502228800553 L14.20464781236103,9.574016369175958 L14.344764282084107,9.645251078540328 L14.47624000218894,9.717163447768375 L14.598995776617933,9.789710159537854 L14.712957661882708,9.862847514422292 L14.818057011604884,9.936531457213889 L14.91423051786611,10.010717603460725 L15.001420249342376,10.085361266202305 L15.079573686199666,10.160417482887292 L15.148643751729969,10.235841042457292 L15.208588840708508,10.311586512580291 L15.259372844455166,10.387608267017386 L15.281319663786224,10.425708446394054 L15.300965172585029,10.463860513106345 L15.318306412310212,10.50205872159335 L15.333340771434862,10.54029731934538 L15.346065985839793,10.578570547770257 L15.356480139154526,10.616872643060564 L15.364581663045872,10.655197837061635 L15.37036933745414,10.69354035814023 L15.373842290776846,10.731894432053707 L15.375,10.770254282819579 " />
			<path d="M15.375,10.770254282819607 L15.371596306772334,10.836025594932918 L15.361386734097797,10.901767786347742 L15.344375802334557,10.96745174925898 L15.320571043189046,11.033048401642606 L15.289982996381267,11.098528700131922 L15.252625204978246,11.163863652876714 L15.20851420939775,11.229024332379591 L15.157669540084907,11.293981888303836 L15.100113708864969,11.358707560247083 L15.035872198976039,11.423172690475184 L14.964973453786202,11.487348736610622 L14.887448864200023,11.551207284269836 L14.803332754760014,11.61472005964389 L14.712662368449203,11.677858942016893 L14.615477850201556,11.74059597621664 L14.511822229127521,11.802903384991952 " />
			<path d="M13.449981578215748,11.7273436945891 L11.562264865483714,11.593015356095137 " />
			<path d="M13.449981578215748,11.7273436945891 L13.330403020189008,11.794164437069629 L13.20279472583878,11.860368414359703 L13.067233561630001,11.92591574765893 L12.923801184539029,11.990766953704703 L12.772583992866545,12.054882968555445 L12.613673074194436,12.11822517112126 L12.447164150518047,12.180755406427838 L12.27315752058683,12.24243600859959 L12.091757999488133,12.303229823548152 L11.903074855510495,12.363100231352629 L11.707221744324537,12.422011168318052 L11.504316640521013,12.479927148698822 L11.294481766547348,12.53681328607397 L11.07784351908539,12.592635314361456 L10.854532392914782,12.647359608458755 L10.624682902307793,12.70095320449738 L10.388433500002934,12.753383819699067 L10.145926493806225,12.804619871821728 L9.897307960870274,12.854630498183402 L9.642727659702876,12.90338557425279 L9.382338939958082,12.950855731795134 L9.11629865006411,12.997012376562555 L8.844767042743701,13.041827705518154 L8.567907678483884,13.08527472358352 L8.285887327013254,13.127327259899559 L7.998875866846113,13.167959983590842 L7.7070461829540164,13.207148419023971 L7.4105740626263295,13.244868960550791 L7.109638089582528,13.281098886727548 L6.804419536400051,13.31581637400144 L6.181872567513851,13.380631305409521 " />
			<path d="M6.181872567513825,13.380631305409525 L5.314241329968024,13.014262600484622 " />
			<path d="M5.314241329967911,13.014262600484635 L4.963372590379487,13.047233381397735 L4.607562142915142,13.077937122039355 L4.247164244938902,13.106343252688163 L3.8825377212414676,13.132423491203939 L3.5140456067816515,13.156151871186275 L3.1420547852360423,13.17750476782762 L2.766935623716747,13.196460921434975 L2.3890616040208967,13.21300145859679 L2.0088089507790703,13.227109910973992 L1.6265562568728509,13.23877223169644 L1.2426841064944736,13.247976809348488 L0.8575746962238504,13.25471447952971 L0.47161145450024783,13.258978533979302 L0.08517865986748083,13.260764727255065 L-0.30133894162728636,13.260071280960307 L-0.6875565195002025,13.256898885514488 L-1.0730895419814594,13.251250699465809 L-1.4575541588686132,13.243132346346446 L-1.84056758370131,13.232551909073578 L-2.2217484748769176,13.219519921901732 L-2.6007173153276004,13.204049359934524 L-2.977096790380828,13.18615562620619 L-3.3505121634271,13.165856536345776 L-3.720591649020861,13.143172300839279 L-4.086966783043131,13.118125504907377 L-4.449272789557315,13.090741086018792 L-4.807148943992912,13.061046309061668 L-5.160238932295563,13.029070739197696 L-5.508191205685817,12.994846212425998 L-5.850659330673433,12.958406803886092 L-6.187302333978711,12.919788793931488 L-6.51778504201746,12.879030632007693 L-6.841778414611566,12.836172898370595 L-7.158959872592945,12.791258263683336 L-7.469013618974679,12.744331446531907 L-7.771630953369569,12.69543916890175 L-8.066510579343076,12.644630109659708 L-8.353358904394621,12.59195485608765 L-8.631890332268574,12.537465853515979 L-8.90182754730391,12.481217353107242 L-9.162901790539406,12.423265357841753 L-9.414853127299496,12.36366756675907 L-9.657430705994352,12.302483317510802 L-9.89039300787652,12.239773527281965 L-10.113508087505469,12.175600632139696 L-10.326553803680602,12.11002852486971 L-10.529318040612829,12.043122491362405 L-10.721598919114486,11.974949145611937 L-10.903204997597348,11.90557636339299 L-11.073955462678573,11.835073214681278 L-11.233680309204862,11.763509894885047 L-11.38222050951555,11.690957654956069 L-11.519428171776124,11.617488730449693 L-11.645166687224519,11.543176269604595 L-11.759310866183599,11.468094260513821 L-11.86174706270439,11.392317457459644 L-11.908542337762576,11.354192060112549 L-11.95237328771597,11.315921306485587 L-11.993229001977731,11.277514723097834 L-12.031099310569369,11.238981870279689 L-12.065974786652289,11.200332339793077 L-12.097846748874371,11.161575752443824 L-12.12670726353096,11.122721755686806 L-12.152549146539766,11.083780021224467 L-12.17536596522915,11.044760242599292 L-12.19515203993937,11.005672132780852 L-12.211902445436401,10.966525421748008 L-12.225613012137922,10.927329854066889 L-12.236280327151247,10.888095186465227 L-12.243901735122867,10.848831185403672 L-12.248475338899434,10.809547624644683 L-12.25,10.770254282819618 " />
			<path d="M-12.25,10.770254282819606 L-12.246310529028502,10.709132619253923 L-12.235244338513361,10.648047773092888 L-12.216808094313954,10.587036539563716 L-12.19101290173441,10.52613566955213 L-12.157874298834198,10.465381847464991 L-12.117412247068566,10.404811669132997 L-12.06965111926453,10.344461619766706 L-12.014619684939573,10.284368051979227 L-11.952351092971975,10.224567163888748 L-11.882882851633164,10.165094977314158 L-11.80625680599414,10.105987316076842 L-11.722519112719558,10.047279784421749 L-11.631720212264696,9.989007745570731 L-11.533914798492003,9.931206300421065 L-11.42916178572555,9.87391026640197 L-11.317524273263261,9.817154156501903 L-11.19906950736825,9.760972158479222 L-11.073868840762179,9.705398114268753 L-10.941997689645063,9.650465499596685 L-10.80353548826735,9.596207403816027 L-10.658565641081715,9.542656509974842 L-10.507175472503333,9.489845075129182 L-10.349456174308914,9.43780491091265 L-10.18550275070618,9.386567364374264 L-10.015413961106898,9.33616329909616 L-9.839292260637897,9.286623076602538 L-9.657243738425924,9.237976538070997 L-9.469378053693527,9.190252986357338 L-9.275808369704434,9.143481168344614 L-9.076651285598249,9.097689257627083 L-8.872026766155471,9.052904837539495 L-8.66205806953521,9.009154884541912 L-8.446871673029072,8.966465751970103 L-8.226597196875975,8.92486315416128 L-7.771317731004653,8.84501713264676 L-7.297316480032306,8.769809176057862 L-6.8057353544901265,8.699420466949453 L-6.297758616366966,8.634020577887094 L-5.774610026118474,8.573767062931891 L-5.23754989452096,8.518805078078955 L-4.687872046472356,8.4692670315639 L-4.126900704054704,8.4252722648798 L-3.5559872963671753,8.386926765273083 L-2.9765072038149962,8.354322910410971 L-2.389856444697576,8.327539245835586 L-1.7974483120781777,8.306640295740864 L-1.2007099690371155,8.291676407528117 L-0.6010790105108709,8.282683630514725 L-2.2149875885894565e-15,8.279683629088193 L0.6010790105108663,8.282683630514725 L1.200709969037111,8.291676407528117 L1.7974483120781732,8.306640295740864 L2.3898564446975716,8.327539245835586 L2.976507203814992,8.354322910410971 L3.555987296367171,8.386926765273083 L4.126900704054701,8.4252722648798 L4.687872046472353,8.4692670315639 L5.237549894520956,8.518805078078955 L5.77461002611847,8.573767062931891 L6.297758616366964,8.634020577887092 L6.805735354490123,8.699420466949451 L7.297316480032302,8.769809176057862 L7.77131773100465,8.845017132646758 L8.226597196875966,8.92486315416128 L8.446871673029069,8.966465751970103 L8.662058069535204,9.009154884541912 L8.872026766155466,9.052904837539495 L9.076651285598253,9.097689257627085 L9.27580836970444,9.143481168344614 L9.46937805369353,9.19025298635734 L9.65724373842593,9.237976538070999 L9.839292260637903,9.28662307660254 L10.015413961106901,9.336163299096162 L10.18550275070618,9.386567364374264 L10.34945617430891,9.43780491091265 L10.507175472503333,9.489845075129182 L10.658565641081713,9.542656509974842 L10.803535488267347,9.596207403816027 L10.94199768964506,9.650465499596683 L11.073868840762179,9.705398114268753 L11.199069507368248,9.760972158479222 L11.31752427326326,9.817154156501903 L11.429161785725547,9.87391026640197 L11.533914798492,9.931206300421064 L11.631720212264694,9.989007745570731 L11.722519112719555,10.047279784421747 L11.806256805994135,10.10598731607684 L11.88288285163316,10.165094977314157 L11.952351092971973,10.224567163888748 L12.014619684939571,10.284368051979225 L12.06965111926453,10.344461619766706 L12.117412247068568,10.404811669132997 L12.157874298834198,10.465381847464993 L12.191012901734412,10.526135669552131 L12.216808094313954,10.587036539563718 L12.235244338513361,10.64804777309289 L12.246310529028502,10.709132619253925 L12.25,10.770254282819584 " />
			<path d="M12.25,10.770254282819607 L12.247288114338932,10.822657442064358 L12.23915365806166,10.875037399451779 L12.225600232754362,10.927370963397319 L12.206633839288834,10.979634962857444 L12.182262875165563,11.031806257588768 L12.152498130795676,11.083861748393561 L12.11735278472341,11.135778387347075 L12.076842397791227,11.187533188002165 L12.030984906250138,11.239103235566702 L11.979800613818307,11.290465697049255 L11.923312182691445,11.341597831368546 L11.861544623508962,11.392476999422229 L11.794525284280336,11.4430806741105 L11.722283838276601,11.493386450310128 L11.644852270892295,11.54337205479448 L11.562264865483716,11.593015356095135 " />
			<path d="M11.562264865483714,11.593015356095137 L11.562264865483714,9.947493209544078 " />
			<path d="M6.181872567513825,8.620074105884592 L6.181872567513825,13.380631305409525 " />
			<path d="M5.314241329968024,13.014262600484622 L5.314241329968024,8.526245965154592 " />
			<path d="M18.750000000000004,2.220446049250313e-16 L18.750000000000004,5.87468415426524 " />
			<path d="M-18.750000000000004,-2.220446049250313e-16 L-18.750000000000004,5.87468415426524 " />
			<path d="M15.375,5.87468415426524 L15.375,10.770254282819607 " />
			<path d="M-15.375,5.87468415426524 L-15.375,10.770254282819607 " />

       </g>
    </g>
    <g transform="translate(20,210.0)" stroke="rgb(0,0,255)">
        <line x1="30" y1="-30" x2="75" y2="-33" stroke-width="3" stroke="#000000" />
         <text x="80" y="-30" style="stroke:#000000">X </text>

        <line x1="30" y1="-30" x2="30" y2="-75" stroke-width="3" stroke="#000000" />
         <text x="25" y="-85" style="stroke:#000000">Y </text>

        <line x1="30" y1="-30" x2="58" y2="-15" stroke-width="3" stroke="#000000" />
         <text x="65" y="-5" style="stroke:#000000">Z </text>
        <!--
            <line x1="0" y1="0" x2="10.164740782571887" y2="0" stroke-width="3" />
            <text x="0" y="20" style="stroke:#000000">1  mm </text>
        -->
    </g>
</svg>
